<svg width="60" height="11" viewBox="0 0 60 11" fill="none" xmlns="http://www.w3.org/2000/svg">
<path d="M4.37381 8H3.85781V2.552L2.26181 8.792L0.677813 2.612V8H0.569813V0.116L2.46581 7.52L4.37381 0.128V8ZM12.2994 4.304C12.2994 5.352 11.9354 6.256 11.2074 7.016C10.4874 7.768 9.61144 8.144 8.57944 8.144C7.53144 8.144 6.63144 7.784 5.87944 7.064C5.12744 6.344 4.75144 5.468 4.75144 4.436C4.75144 3.388 5.11144 2.488 5.83144 1.736C6.55944 0.976 7.43944 0.595999 8.47144 0.595999C9.51944 0.595999 10.4194 0.956 11.1714 1.676C11.9234 2.396 12.2994 3.272 12.2994 4.304ZM11.8074 4.304C11.8074 3.296 11.4794 2.44 10.8234 1.736C10.1674 1.024 9.38744 0.676 8.48344 0.692C7.58744 0.707999 6.82344 1.084 6.19144 1.82C5.56744 2.548 5.25544 3.42 5.25544 4.436C5.25544 5.436 5.58344 6.288 6.23944 6.992C6.89544 7.688 7.67544 8.036 8.57944 8.036C9.47544 8.036 10.2354 7.672 10.8594 6.944C11.4914 6.208 11.8074 5.328 11.8074 4.304ZM17.9402 4.292C17.9402 5.3 17.5762 6.172 16.8482 6.908C16.1282 7.636 15.2562 8 14.2322 8H12.7442V0.715999H14.1242C15.1642 0.715999 16.0602 1.064 16.8122 1.76C17.5642 2.456 17.9402 3.3 17.9402 4.292ZM17.4362 4.292C17.4362 3.332 17.1082 2.516 16.4522 1.844C15.8042 1.172 15.0282 0.836 14.1242 0.836H13.2602V7.88H14.2322C15.1282 7.88 15.8842 7.532 16.5002 6.836C17.1242 6.132 17.4362 5.284 17.4362 4.292ZM20.6441 8H18.5801V0.692H20.4161V0.8H19.0961V3.2H20.6441V3.308H19.0961V7.892H20.6441V8ZM28.3976 9.176C28.3976 9.88 28.0336 10.232 27.3056 10.232C26.0576 10.232 25.1016 9.556 24.4376 8.204C24.2536 7.66 24.0696 7.116 23.8856 6.572C23.5656 5.852 23.0976 5.492 22.4816 5.492H21.6296V8H21.1136V0.692H22.4816C23.2576 0.692 23.9176 0.928 24.4616 1.4C25.0136 1.864 25.2896 2.424 25.2896 3.08C25.2896 3.592 25.1056 4.068 24.7376 4.508C24.3456 4.988 23.8416 5.296 23.2256 5.432C23.6176 5.592 23.9696 5.976 24.2816 6.584C24.4816 7.048 24.6856 7.512 24.8936 7.976C25.2216 8.632 25.6216 9.144 26.0936 9.512C26.5336 9.864 26.9776 10.04 27.4256 10.04C27.6496 10.04 27.8416 9.976 28.0016 9.848C28.1936 9.688 28.2896 9.464 28.2896 9.176C28.2896 8.944 28.1856 8.752 27.9776 8.6C27.7696 8.456 27.5336 8.384 27.2696 8.384V8.276C27.5496 8.276 27.8056 8.36 28.0376 8.528C28.2776 8.704 28.3976 8.92 28.3976 9.176ZM24.7616 3.08C24.7616 2.456 24.5376 1.924 24.0896 1.484C23.6496 1.044 23.1136 0.823999 22.4816 0.823999H21.6296V5.36H22.4816C23.1136 5.36 23.6496 5.14 24.0896 4.7C24.5376 4.252 24.7616 3.712 24.7616 3.08ZM28.6058 8.78L25.9298 1.82V8H25.8218V0.116L28.5098 7.052V0.692H28.6058V8.78ZM39.7427 6.404C39.4067 6.94 38.9667 7.364 38.4227 7.676C37.8787 7.988 37.2827 8.144 36.6347 8.144C35.5787 8.144 34.6707 7.784 33.9107 7.064C33.1587 6.336 32.7827 5.456 32.7827 4.424C32.7827 3.376 33.1427 2.472 33.8627 1.712C34.5907 0.952 35.4747 0.572 36.5147 0.572C37.1627 0.572 37.7707 0.724 38.3387 1.028C38.9067 1.324 39.3667 1.732 39.7187 2.252L39.3947 2.444C39.0987 1.9 38.6907 1.468 38.1707 1.148C37.6587 0.828 37.1067 0.672 36.5147 0.68C35.6187 0.696 34.8547 1.068 34.2227 1.796C33.5987 2.524 33.2867 3.4 33.2867 4.424C33.2867 5.424 33.6147 6.276 34.2707 6.98C34.9267 7.684 35.7107 8.036 36.6227 8.036C37.2147 8.036 37.7547 7.872 38.2427 7.544C38.7387 7.208 39.1267 6.76 39.4067 6.2L39.7427 6.404ZM42.4058 8H40.3418V0.692H40.8578V7.892H42.4058V8ZM45.3833 8H44.8553L44.4113 5.468H43.1513L42.7073 8H42.5993L44.0033 0.116L45.3833 8ZM44.3993 5.36L43.7873 1.88L43.1753 5.36H44.3993ZM50.9645 5.528C50.9645 6.232 50.7045 6.84 50.1845 7.352C49.6645 7.856 49.0405 8.108 48.3125 8.108C47.5845 8.108 46.9605 7.856 46.4405 7.352C45.9205 6.848 45.6605 6.24 45.6605 5.528C45.6605 4.992 45.8165 4.504 46.1285 4.064C46.4485 3.624 46.8605 3.308 47.3645 3.116L47.4125 3.224C46.9245 3.4 46.5245 3.7 46.2125 4.124C45.9085 4.54 45.7565 5.008 45.7565 5.528C45.7565 6.2 46.0125 6.78 46.5245 7.268C47.0445 7.756 47.6405 8 48.3125 8C48.8885 8 49.3845 7.76 49.8005 7.28C50.2165 6.792 50.4245 6.208 50.4245 5.528C50.4245 4.864 50.2365 4.316 49.8605 3.884C49.4925 3.444 49.0165 3.192 48.4325 3.128C48.0245 3.08 47.7005 2.936 47.4605 2.696C47.2205 2.456 47.1085 2.16 47.1245 1.808C47.1405 1.48 47.2605 1.2 47.4845 0.968C47.7085 0.736 47.9845 0.62 48.3125 0.62C48.6405 0.62 48.9205 0.736 49.1525 0.968C49.3845 1.2 49.5005 1.48 49.5005 1.808C49.5005 2 49.4525 2.184 49.3565 2.36L49.2965 2.336C49.3845 2.176 49.4285 2.004 49.4285 1.82C49.4285 1.516 49.3205 1.256 49.1045 1.04C48.8885 0.816 48.6285 0.704 48.3245 0.704C48.1245 0.704 47.9525 0.792 47.8085 0.968C47.6725 1.144 47.6045 1.384 47.6045 1.688C47.6045 2.28 47.8965 2.604 48.4805 2.66C49.1925 2.732 49.7845 3.048 50.2565 3.608C50.7285 4.168 50.9645 4.808 50.9645 5.528ZM56.6012 5.528C56.6012 6.232 56.3412 6.84 55.8212 7.352C55.3012 7.856 54.6772 8.108 53.9492 8.108C53.2212 8.108 52.5972 7.856 52.0772 7.352C51.5572 6.848 51.2972 6.24 51.2972 5.528C51.2972 4.992 51.4532 4.504 51.7652 4.064C52.0852 3.624 52.4972 3.308 53.0012 3.116L53.0492 3.224C52.5612 3.4 52.1612 3.7 51.8492 4.124C51.5452 4.54 51.3932 5.008 51.3932 5.528C51.3932 6.2 51.6492 6.78 52.1612 7.268C52.6812 7.756 53.2772 8 53.9492 8C54.5252 8 55.0212 7.76 55.4372 7.28C55.8532 6.792 56.0612 6.208 56.0612 5.528C56.0612 4.864 55.8732 4.316 55.4972 3.884C55.1292 3.444 54.6532 3.192 54.0692 3.128C53.6612 3.08 53.3372 2.936 53.0972 2.696C52.8572 2.456 52.7452 2.16 52.7612 1.808C52.7772 1.48 52.8972 1.2 53.1212 0.968C53.3452 0.736 53.6212 0.62 53.9492 0.62C54.2772 0.62 54.5572 0.736 54.7892 0.968C55.0212 1.2 55.1372 1.48 55.1372 1.808C55.1372 2 55.0892 2.184 54.9932 2.36L54.9332 2.336C55.0212 2.176 55.0652 2.004 55.0652 1.82C55.0652 1.516 54.9572 1.256 54.7412 1.04C54.5252 0.816 54.2652 0.704 53.9612 0.704C53.7612 0.704 53.5892 0.792 53.4452 0.968C53.3092 1.144 53.2412 1.384 53.2412 1.688C53.2412 2.28 53.5332 2.604 54.1172 2.66C54.8292 2.732 55.4212 3.048 55.8932 3.608C56.3652 4.168 56.6012 4.808 56.6012 5.528ZM59.4419 0.704L58.4819 5.396V8H57.9659V5.948L56.8979 0.704H57.4259L58.3859 5.372L59.3459 0.704H59.4419Z" fill="#AA8B56"/>
</svg>
